<svg width="57" height="28" viewBox="0 0 57 28" fill="none" xmlns="http://www.w3.org/2000/svg">
<g clip-path="url(#clip0_4137_812)">
<path d="M34.8197 0.0812988H47.9615C53.7347 0.0812988 56.6034 2.07286 56.6034 5.77657C56.6034 9.0027 55.1707 12.0274 51.7042 13.0638V13.223C53.8159 13.6226 55.4469 15.1366 55.4469 18.1223C55.4469 25.0911 50.749 27.9599 43.6989 27.9599H29.9204L34.8197 0.0845477V0.0812988ZM43.7022 23.1386C47.0876 23.1386 48.9978 22.1022 48.9978 18.3595C48.9978 16.4881 47.8835 15.9683 44.9757 15.9683H38.2863L37.0517 23.1353H43.7022V23.1386ZM45.3753 11.2704C48.3221 11.2704 50.1934 10.3542 50.1934 7.01114C50.1934 5.4192 49.196 4.89938 46.6488 4.89938H40.2779L39.1244 11.2704H45.3753Z" fill="#3B3C3C"/>
<path d="M34.8198 0.0812988L32.8444 11.2704H29.5532L28.5916 13.3821C27.4383 16.0495 26.3629 18.5577 25.5637 21.2672H25.4045C25.5247 18.5577 25.4857 16.0495 25.2064 13.3821L23.7735 0.0812988H17.4805L11.3466 13.3821C10.151 16.0495 9.15686 18.5577 8.31864 21.2672H8.15945C8.31864 18.5577 8.19844 16.0495 7.96127 13.3821L6.60649 0.0812988H0.115234L3.41934 27.9566H10.0698L15.9242 15.1723C17.1979 12.505 18.3155 9.71745 19.1894 6.96891H19.3486C19.2283 9.67847 19.3875 12.505 19.6669 15.1723L21.142 27.9566H27.7924L40.9341 0.0812988H34.8165H34.8198Z" fill="#3C3C3B"/>
<path d="M43.6958 11.2703L42.8737 15.9681H38.3157L37.4416 20.9552H31.1486L32.0193 15.9681H27.4937L28.3155 11.2703H32.8446L33.6925 6.42944H39.9855L39.1408 11.2703H43.6958Z" fill="#D10059"/>
</g>
<defs>
<clipPath id="clip0_4137_812">
<rect width="56.6035" height="28" fill="white"/>
</clipPath>
</defs>
</svg>