<svg width="24" height="24" viewBox="0 0 24 24" fill="none" xmlns="http://www.w3.org/2000/svg">
<g clip-path="url(#clip0_4008_3888)">
<path d="M20.4592 4.97691L9.26306 17.0527C8.88756 17.4577 8.25485 17.4816 7.84986 17.1061C7.8208 17.0792 7.79338 17.0506 7.76773 17.0204L3.56977 12.0803C3.21214 11.6595 2.58105 11.6082 2.1602 11.9659C1.73935 12.3235 1.6881 12.9546 2.04573 13.3754L6.24368 18.3155C6.32064 18.406 6.40292 18.492 6.49007 18.5728C7.70506 19.6992 9.6032 19.6275 10.7297 18.4125L21.9258 6.3367C22.3013 5.93171 22.2774 5.29899 21.8724 4.9235C21.4674 4.548 20.8347 4.57192 20.4592 4.97691Z" fill="#0051D1"/>
</g>
<defs>
<clipPath id="clip0_4008_3888">
<rect width="24" height="24" fill="white"/>
</clipPath>
</defs>
</svg>
