<svg width="20" height="20" viewBox="0 0 20 20" fill="none" xmlns="http://www.w3.org/2000/svg">
<path d="M6.94845 3.95769L13.05 9.3459C13.3951 9.65072 13.4276 10.1774 13.1225 10.5222C13.1008 10.5466 13.0777 10.5698 13.0534 10.5916L6.94505 16.0453C6.60154 16.352 6.57196 16.8789 6.87898 17.222C7.186 17.5652 7.71335 17.5947 8.05686 17.288L14.1652 11.8342C14.2383 11.769 14.3075 11.6994 14.3725 11.626C15.2879 10.5916 15.1905 9.01167 14.155 8.09719L8.05346 2.70899C7.70828 2.40417 7.1811 2.43659 6.87596 2.78141C6.57082 3.12623 6.60327 3.65287 6.94845 3.95769Z" fill="#727272"/>
</svg>
