<svg width="16" height="16" viewBox="0 0 16 16" fill="none" xmlns="http://www.w3.org/2000/svg">
<path d="M13.8353 5.13376C13.6935 5.00946 13.4935 4.98327 13.3259 5.0671L10.7608 6.34977L8.35391 3.49935C8.2649 3.3939 8.13569 3.33333 7.9998 3.33333C7.8639 3.33333 7.73472 3.3939 7.64568 3.49935L5.23884 6.34974L2.67374 5.06707C2.50609 4.98327 2.30608 5.00944 2.16428 5.13374C2.02248 5.25803 1.96586 5.45683 2.02007 5.64004L3.80132 11.6586C3.86134 11.8614 4.04343 12 4.2498 12H11.7498C11.9561 12 12.1382 11.8614 12.1982 11.6586L13.9795 5.64006C14.0337 5.45686 13.9771 5.25805 13.8353 5.13376ZM11.4023 11.037H4.59721L3.22961 6.41606L5.152 7.37737C5.34287 7.4728 5.57223 7.4246 5.71129 7.25993L7.9998 4.54967L10.2883 7.25993C10.4274 7.42462 10.6568 7.47277 10.8476 7.37737L12.77 6.41606L11.4023 11.037Z" fill="white"/>
<path fill-rule="evenodd" clip-rule="evenodd" d="M2.67374 5.06707L5.23884 6.34974L7.64568 3.49935C7.73472 3.3939 7.8639 3.33333 7.9998 3.33333C8.13569 3.33333 8.2649 3.3939 8.35391 3.49935L10.7608 6.34977L13.3259 5.0671C13.4935 4.98327 13.6935 5.00946 13.8353 5.13376C13.9771 5.25805 14.0337 5.45686 13.9795 5.64006L12.1982 11.6586C12.1382 11.8614 11.9561 12 11.7498 12H4.2498C4.04343 12 3.86134 11.8614 3.80132 11.6586L2.02007 5.64004C1.96586 5.45683 2.02248 5.25803 2.16428 5.13374C2.30608 5.00944 2.50609 4.98327 2.67374 5.06707ZM12.39 11.7153C12.3058 12.0002 12.0478 12.2 11.7498 12.2H4.2498C3.9518 12.2 3.69383 12.0001 3.60954 11.7153L1.82829 5.6968C1.75232 5.44004 1.83097 5.15995 2.03245 4.98334C2.23487 4.8059 2.52225 4.76775 2.76317 4.88818L5.18754 6.10048L7.49287 3.37031C7.61922 3.22068 7.80394 3.13333 7.9998 3.13333C8.19563 3.13333 8.38039 3.22067 8.50674 3.37033L10.812 6.10051L13.2364 4.88822C13.4773 4.76775 13.7648 4.80592 13.9671 4.98338C14.1686 5.15999 14.2473 5.44007 14.1713 5.69682L12.39 11.7153ZM5.152 7.37737L3.22961 6.41606L4.59721 11.037H11.4023L12.77 6.41606L10.8476 7.37737C10.6568 7.47277 10.4274 7.42462 10.2883 7.25993L7.9998 4.54967L5.71129 7.25993C5.57223 7.4246 5.34287 7.4728 5.152 7.37737ZM7.9998 4.85968L5.8641 7.38896C5.66637 7.62311 5.33724 7.69358 5.06256 7.55626L3.55209 6.80093L4.74659 10.837H11.253L12.4475 6.80094L10.937 7.55625C10.6625 7.69354 10.3333 7.62318 10.1355 7.38897L7.9998 4.85968Z" fill="white"/>
</svg>
