<svg width="24" height="24" viewBox="0 0 24 24" fill="none" xmlns="http://www.w3.org/2000/svg">
<path d="M15.9693 19.5C15.7232 21.4732 14.04 23 12.0002 23C9.96042 23 8.27722 21.4732 8.03118 19.5H4.03906C2.93449 19.5 2.03906 18.6046 2.03906 17.5C2.03906 17.0568 2.18629 16.6261 2.45761 16.2757L4.0002 14.2831V9C4.0002 4.58172 7.58193 1 12.0002 1C16.4185 1 20.0002 4.58172 20.0002 9V14.2831L21.5428 16.2757C22.219 17.1491 22.0591 18.4053 21.1857 19.0814C20.8352 19.3528 20.4046 19.5 19.9613 19.5H15.9693ZM13.9372 19.5H10.0632C10.2853 20.3626 11.0683 21 12.0002 21C12.9321 21 13.7152 20.3626 13.9372 19.5ZM6.0002 9V14.625C6.0002 14.8466 5.92659 15.0619 5.79093 15.2372L4.03906 17.5H19.9613L18.2095 15.2372C18.0738 15.0619 18.0002 14.8466 18.0002 14.625V9C18.0002 5.68629 15.3139 3 12.0002 3C8.6865 3 6.0002 5.68629 6.0002 9Z" fill="white"/>
</svg>
