<svg width="16" height="16" viewBox="0 0 16 16" fill="none" xmlns="http://www.w3.org/2000/svg">
<path d="M0.9841 6.59376L0.934985 3.77996C0.909282 2.30743 2.08217 1.09286 3.55471 1.06716L6.36851 1.01805C7.09452 1.00537 7.7943 1.28931 8.30622 1.80426L14.4679 8.00244C15.4913 9.03187 15.5033 10.6907 14.495 11.7349L11.978 14.3413C10.9697 15.3854 9.31142 15.4313 8.2469 14.4445L1.83746 8.50286C1.30495 8.00922 0.996772 7.31977 0.9841 6.59376ZM2.31723 6.57049C2.32357 6.9335 2.47766 7.27822 2.74391 7.52504L9.15335 13.4667C9.68561 13.9601 10.5148 13.9371 11.0189 13.4151L13.5359 10.8087C14.04 10.2866 14.034 9.45717 13.5223 8.94246L7.36064 2.74428C7.10467 2.48681 6.75478 2.34484 6.39178 2.35118L3.57798 2.40029C2.84171 2.41314 2.25526 3.02042 2.26811 3.75669L2.31723 6.57049ZM5.33353 7.33332C4.22896 7.33332 3.33353 6.43788 3.33353 5.33332C3.33353 4.22875 4.22896 3.33332 5.33353 3.33332C6.4381 3.33332 7.33353 4.22875 7.33353 5.33332C7.33353 6.43788 6.4381 7.33332 5.33353 7.33332ZM5.33353 5.99998C5.70172 5.99998 6.0002 5.70151 6.0002 5.33332C6.0002 4.96513 5.70172 4.66665 5.33353 4.66665C4.96534 4.66665 4.66686 4.96513 4.66686 5.33332C4.66686 5.70151 4.96534 5.99998 5.33353 5.99998Z" fill="#191847"/>
</svg>
